<?xml version="1.0" encoding="utf-8"?>
<!-- Generator: Adobe Illustrator 21.0.0, SVG Export Plug-In . SVG Version: 6.00 Build 0)  -->
<svg version="1.1" id="Layer_1" xmlns="http://www.w3.org/2000/svg" xmlns:xlink="http://www.w3.org/1999/xlink" x="0px" y="0px"
	 viewBox="0 0 1080 1080" style="enable-background:new 0 0 1080 1080;" xml:space="preserve">
<style type="text/css">
	.st0{fill:#303030;}
</style>
<g>
	<path class="st0" d="M898,390c-19.5-46.1-47.4-87.4-82.9-123c-35.5-35.5-76.9-63.4-123-82.9c-47.7-20.2-98.4-30.4-150.6-30.4
		c-52.2,0-102.9,10.2-150.6,30.4c-46.1,19.5-87.4,47.4-123,82.9s-63.4,76.9-82.9,123c-20.2,47.7-30.4,98.4-30.4,150.6
		c0,52.2,10.2,102.9,30.4,150.6c19.5,46.1,47.4,87.4,82.9,123c35.5,35.5,76.9,63.4,123,82.9c47.7,20.2,98.4,30.4,150.6,30.4
		c52.2,0,102.9-10.2,150.6-30.4c46.1-19.5,87.4-47.4,123-82.9c35.5-35.5,63.4-76.9,82.9-123c20.2-47.7,30.4-98.4,30.4-150.6
		C928.4,488.4,918.2,437.7,898,390z M859.4,421.7c9.3,0.1,17.8,3.1,24.7,8.3c-6.3-0.2-12,1.5-16.6,2.9c-3,0.9-5.9,1.8-7.9,1.8
		c-3.6,0-6.5-2.9-6.5-6.5C853.2,424.7,856,421.8,859.4,421.7z M905.1,439.7c-8.7-16.3-25.8-27.4-45.5-27.7v0c-0.1,0-0.1,0-0.2,0
		c-0.1,0-0.3,0-0.4,0v0c-8.6,0.3-15.6,7.4-15.6,16.2c0,8.9,7.3,16.2,16.2,16.2c3.4,0,7-1.1,10.7-2.2c8.6-2.6,17.5-5.3,27,3.8
		c2.5,5.3,4,11.3,4.1,17.6c-0.4,24.8-20.6,44.8-45.4,45c-29.2-0.1-53-23.9-53-53.2h0c-0.9-46.4-32.3-85.5-75-98
		c29.4-11.6,50.4-39.9,51-73.2h0c0-0.3,0-0.5,0-0.8c0-0.3,0-0.5,0-0.8h0c-0.4-20.1-8.8-38.2-22-51.5c18.1,12.7,35.2,27,51.2,42.9
		C855,320.7,888,377.6,905.1,439.7z M705.9,543.2c-11.8-0.1-22.9-3-32.7-8c18.1-16.9,42.3-27.3,68.9-27.6c10.4,0.1,20.3,2,29.5,5.4
		C755.6,531.4,732.1,543.1,705.9,543.2z M743.3,498L743.3,498c-0.3,0-0.6,0-0.9,0c-0.3,0-0.6,0-0.9,0v0c-29.9,0.5-57,12.6-76.9,32.1
		c-18.6-13-30.8-34.3-31.3-58.6c0.4-16.5,6.9-31.4,17.5-42.6c9.6-8.9,23.1-4.4,34-0.7c5,1.7,9.3,3.1,12.9,3.1
		c8.9,0,16.2-7.3,16.2-16.2s-7.3-16.2-16.2-16.2v9.7c3.6,0,6.5,2.9,6.5,6.5c0,3.6-2.9,6.5-6.5,6.5c-2,0-5.8-1.3-9.8-2.6
		c-4.9-1.6-10.8-3.6-17-4.5c8.2-3.8,17.2-5.9,26.8-5.9v-9.7c-21.1,0-40.1,8.9-53.6,23.1c-0.2,0.2-0.4,0.4-0.6,0.6l0,0
		c-11.7,12.6-19.1,29.2-19.8,47.5h-0.1c0,0.5,0,1,0,1.5c0,0.5,0,1,0,1.5h0.1c0.9,26.4,14.2,49.7,34.3,64.2
		c-8.7,10.1-15.7,21.8-20.4,34.6c-27.4-27.7-43-65.4-43.1-104.6c0.1-57.6,47-104.4,104.6-104.4c51.7,0,93.9,41.8,94.4,93.4
		c-0.2,18.1-5.9,34.9-15.5,48.8C767.2,500.7,755.5,498.2,743.3,498z M729.7,213.6c-7.5-2.7-15.6-4.3-24-4.5v0c-0.3,0-0.5,0-0.8,0
		c-0.3,0-0.5,0-0.8,0v0c-17.9,0.4-34.2,7.4-46.5,18.7l0,0c-0.2,0.2-0.3,0.3-0.5,0.5c-13.9,13-22.6,31.5-22.6,51.9h-0.1
		c0,8.9,7.3,16.2,16.2,16.2c8.9,0,16.2-7.3,16.2-16.2c0-3.7-1.6-8-3.3-12.9c-4.7-12.9-7.6-23.5,0.6-32.2
		c10.8-10,25.1-16.1,40.9-16.3c35.4,0.4,64,29.1,64.5,64.4c-0.4,38.6-32,69.9-70.7,69.9v0C636,353.2,584.9,404.3,584.7,467h0
		c0,0.1,0,0.1,0,0.2c0,0.1,0,0.1,0,0.2h0c0,17.6,3,34.9,8.7,51.2c-7.9-12.3-15-25.2-21.1-38.6c-13.7-30.2-22-62.1-25-95
		c0.5-6.2,0.9-12.4,1.1-18.7l11.1-34.1h58l-46.9-34.1l17.9-55.2l-42.1,30.6v-40.6c4-5.5,13-18.7,13-26.2c0-8.2-5.5-15-13-17.2v-26
		C611.7,164.3,674.5,181.7,729.7,213.6z M654.4,270.6c1.4,3.7,2.8,7.6,2.8,9.6c0,3.6-2.9,6.5-6.5,6.5c-3.6,0-6.5-2.9-6.5-6.5h0.1
		c0-9,2-17.6,5.5-25.4C650.7,260.7,652.7,266.1,654.4,270.6z M513,268.3l28.5,20.7l28.5-20.7l-10.9,33.5l28.5,20.7h-35.2l-10.9,33.5
		l-10.9-33.5h-35.2l28.5-20.7L513,268.3z M541.5,198.5c4.5,0,8.1,3.7,8.1,8.1c0,2.6-3.7,9.5-8.1,16.2c-4.4-6.6-8.1-13.6-8.1-16.2
		C533.4,202.2,537,198.5,541.5,198.5z M536.6,163.5v26c-7.5,2.1-13,9-13,17.2c0,7.5,9,20.7,13,26.2v40.6l-42.1-30.6l17.9,55.2
		l-46.9,34.1h58l13.1,40.3c0.2,4.2,0.5,8.4,0.8,12.5c-3,32.9-11.3,64.8-25,95c-7.1,15.7-15.5,30.5-25,44.6
		c7-18.1,10.8-37.4,10.9-57.2h0c0-0.1,0-0.1,0-0.2c0-0.1,0-0.1,0-0.2h0c-0.2-62.8-51.3-113.8-114.1-113.9v0
		c-38.7,0-70.2-31.3-70.7-69.9c0.4-35.4,29.1-64,64.5-64.4c15.8,0.2,30.1,6.4,40.9,16.3c8.2,8.7,5.3,19.3,0.6,32.2
		c-1.8,5-3.3,9.2-3.3,12.9c0,8.9,7.3,16.2,16.2,16.2c8.9,0,16.2-7.3,16.2-16.2h-0.1c0-20.5-8.7-38.9-22.6-51.9
		c-0.2-0.2-0.3-0.3-0.5-0.5l0,0c-12.3-11.3-28.6-18.3-46.5-18.7v0c-0.3,0-0.5,0-0.8,0c-0.3,0-0.5,0-0.8,0v0
		c-8.4,0.2-16.5,1.7-24,4.5C408.5,181.7,471.3,164.3,536.6,163.5z M459.4,472.9L459.4,472.9c0.1-0.5,0-1,0-1.5c0-0.5,0-1,0-1.5h-0.1
		c-0.7-18.3-8.1-34.9-19.8-47.5l0,0c-0.2-0.2-0.4-0.4-0.6-0.6c-13.5-14.2-32.5-23.1-53.6-23.1v9.7c9.6,0,18.6,2.1,26.8,5.9
		c-6.2,0.9-12.1,2.8-17,4.5c-4,1.3-7.8,2.6-9.8,2.6c-3.6,0-6.5-2.9-6.5-6.5c0-3.6,2.9-6.5,6.5-6.5v-9.7c-8.9,0-16.2,7.3-16.2,16.2
		s7.3,16.2,16.2,16.2c3.6,0,7.9-1.4,12.9-3.1c10.9-3.6,24.4-8.1,34,0.7c10.5,11.2,17.1,26.2,17.5,42.6
		c-0.5,24.2-12.7,45.6-31.3,58.6c-19.9-19.5-47-31.6-76.9-32.1v0c-0.3,0-0.6,0-0.9,0c-0.3,0-0.6,0-0.9,0v0
		c-12.2,0.2-23.8,2.7-34.5,7.1c-9.6-13.9-15.3-30.7-15.5-48.8c0.5-51.6,42.7-93.4,94.4-93.4c57.6,0,104.5,46.8,104.6,104.4
		c-0.1,39.2-15.7,76.8-43.1,104.6c-4.7-12.8-11.7-24.5-20.4-34.6C445.1,522.6,458.4,499.3,459.4,472.9z M377.1,543.2
		c-26.2-0.2-49.7-11.8-65.7-30.2c9.2-3.4,19.1-5.4,29.5-5.4c26.6,0.3,50.8,10.7,68.9,27.6C399.9,540.3,388.8,543.2,377.1,543.2z
		 M438.7,280.3h0.1c0,3.6-2.9,6.5-6.5,6.5c-3.6,0-6.5-2.9-6.5-6.5c0-2,1.4-5.9,2.8-9.6c1.6-4.5,3.6-10,4.6-15.7
		C436.7,262.6,438.7,271.2,438.7,280.3z M274.8,273.9c15.9-15.9,33.1-30.3,51.2-42.9c-13.3,13.2-21.6,31.4-22,51.5h0
		c0,0.3,0,0.5,0,0.8c0,0.3,0,0.5,0,0.8h0c0.7,33.3,21.6,61.6,51,73.2c-42.7,12.4-74.1,51.5-75,98h0c0,29.3-23.8,53.1-53,53.2
		c-24.8-0.1-45-20.2-45.4-45c0.1-6.3,1.6-12.2,4.1-17.6c9.6-9.1,18.4-6.4,27-3.8c3.8,1.1,7.3,2.2,10.7,2.2c8.9,0,16.2-7.3,16.2-16.2
		c0-8.7-6.9-15.8-15.6-16.2v0c-0.1,0-0.3,0-0.4,0c-0.1,0-0.1,0-0.2,0v0c-19.7,0.2-36.8,11.4-45.5,27.7
		C195,377.6,228,320.7,274.8,273.9z M223.6,421.7c3.5,0.1,6.3,3,6.3,6.5c0,3.6-2.9,6.5-6.5,6.5c-2,0-4.9-0.9-7.9-1.8
		c-4.6-1.4-10.3-3.1-16.6-2.9C205.7,424.8,214.3,421.8,223.6,421.7z M164.3,540.6c0-25.6,2.6-50.9,7.5-75.5
		c1.2,29.3,25.3,52.8,54.9,53v0c0.1,0,0.1,0,0.2,0c0.1,0,0.1,0,0.2,0v0c25-0.2,46.5-14.9,56.5-36.2c2.8,9.8,7.1,19,12.6,27.3
		c-30,16.1-50.5,47.8-50.6,84.1h0c0,0,0,0.1,0,0.1c0,0.1,0,0.2,0,0.2h0c0.2,41,33.2,74.4,74.1,75.2v0c0.2,0,0.5,0,0.7,0
		c0.2,0,0.5,0,0.7,0v0c15.2-0.3,29.2-5.7,40.4-14.6l0.1,0.1c0.2-0.2,0.3-0.3,0.5-0.5c15.2-12.3,25-31.1,25.1-52.1h0c0,0,0-0.1,0-0.1
		c0-0.1,0-0.1,0-0.2h0c-0.2-8.8-7.3-15.9-16.2-15.9c-8.9,0-16.2,7.3-16.2,16.2c0,3.4,1.2,7.4,2.6,12.1c4,13.1,6.3,24-1.8,32.9
		c-9.7,7.7-21.9,12.3-35.1,12.5c-35.9-0.4-65.1-29.7-65.2-65.7c0.1-33.2,19.1-62.1,46.8-76.4c17.7,21.6,44.5,35.4,74.4,35.7v0
		c0.1,0,0.2,0,0.4,0c0.2,0,0.5,0,0.7,0v0c14.2-0.2,27.6-4,39.2-10.5c16.1,18.2,25.9,42.1,25.9,68.3v141.1c0,31.1-25,56.5-56,57.1
		c-7.6-0.2-14.7-2.3-21-5.8c-9.1-9.5-6-19-3-28.1c1.3-4,2.5-7.8,2.5-11.3c0-8.9-7.3-16.2-16.2-16.2c-8.9,0-16.2,7.3-16.2,16.2h0
		c0,23.1,14.4,43,34.7,51.1c-10.6,6.6-17.7,18.2-18.1,31.5h0c0,0.2,0,0.4,0,0.5c0,0.2,0,0.4,0,0.5h0c0.3,9.5,4.4,18.1,10.8,24.3
		c-31-17-59.9-38.6-85.6-64.3C203.5,736.1,164.3,641.4,164.3,540.6z M366.7,611.1c-1.1-3.7-2.2-7.3-2.2-9.3c0-3.6,2.9-6.5,6.5-6.5
		c3.5,0,6.4,2.9,6.5,6.4c0,9.8-2.5,19-6.9,27.1C370.1,622.4,368.3,616.2,366.7,611.1z M353.5,772.1c-1.5,4.6-3.3,10.3-3.5,16.5
		c-4.7-7.1-7.4-15.7-7.4-24.8h0c0-3.6,2.9-6.5,6.5-6.5c3.6,0,6.5,2.9,6.5,6.5C355.6,765.7,354.6,768.8,353.5,772.1z M378.4,880.9
		c1.7,0.3,3.5,0.5,5.3,0.6v0c0.2,0,0.4,0,0.6,0c0.2,0,0.4,0,0.6,0v0c17.6-0.6,31.7-15,31.7-32.7h0c0,0,0,0,0,0c0,0,0-0.1,0-0.1h0
		c-0.1-8.9-7.3-16.1-16.2-16.1c-8.9,0-16.2,7.3-16.2,16.2c0,3,0.4,5.9,0.8,8.6c1,6.5,1.3,10.4-2.2,14.3c-13-1-23.3-11.7-23.6-24.9
		c0.3-15.6,13-28.1,28.6-28.1v-0.1c35.8-1.2,64.5-30.6,64.5-66.7h0V610.7c0-9.4-1.2-18.5-3.3-27.2c30.8-28.2,55.1-61.6,72.2-99.5
		c6.2-13.6,11.2-27.5,15.3-41.6v106.4v52.8v146h-34.2v9.7h34.2v47.4c-30.3,1.1-59.6,12.1-83.1,31.2l-4.6,3.8l4.6,3.8
		c4.5,3.7,9.3,7.1,14.3,10.2l-29,50.2C418.1,897.9,397.8,890.3,378.4,880.9z M394.6,855.9c-0.4-2.5-0.7-4.8-0.7-7.1
		c0-3.6,2.9-6.5,6.5-6.5c3.6,0,6.4,2.9,6.5,6.4c0,8.7-4.9,16.3-12,20.2C395.9,864.3,395.2,859.9,394.6,855.9z M566.9,839.6
		c0,14-11.4,25.4-25.4,25.4c-14,0-25.4-11.4-25.4-25.4c0-14,11.4-25.4,25.4-25.4C555.5,814.3,566.9,825.6,566.9,839.6z M514.6,862.1
		c-18-3.8-35.2-11.5-50.1-22.5c14.9-11,32-18.7,50.1-22.5c-5.1,6.1-8.2,14-8.2,22.5C506.4,848.2,509.5,856,514.6,862.1z
		 M500.9,868.6l-12.2,45.5c-13.5-1.9-26.9-4.5-40.1-7.8l27.7-47.9C484.1,862.6,492.4,866,500.9,868.6z M510.2,871.1
		c8.6,2,17.5,3.2,26.4,3.5v43.1c-12.9-0.2-25.6-1-38.3-2.4L510.2,871.1z M546.4,874.6c8.9-0.3,17.8-1.5,26.4-3.5l11.9,44.2
		c-12.6,1.4-25.4,2.2-38.3,2.4V874.6z M582.1,868.6c8.5-2.6,16.7-6,24.6-10.2l27.7,47.9c-13.2,3.3-26.5,5.9-40.1,7.8L582.1,868.6z
		 M568.4,862.1c5.1-6.1,8.2-14,8.2-22.5c0-8.6-3.1-16.4-8.2-22.5c18,3.8,35.2,11.5,50.1,22.5C603.5,850.7,586.4,858.3,568.4,862.1z
		 M644.1,903.7l-29-50.2c4.9-3.1,9.7-6.5,14.3-10.2l4.6-3.8l-4.6-3.8c-23.5-19.2-52.8-30.2-83.1-31.2v-47.4h34.2v-9.7h-34.2v-146
		v-52.8V436c4.3,16.4,10,32.4,17.1,48c16.9,37.3,40.7,70.3,70.8,98.2c-2.4,9.1-3.7,18.7-3.7,28.5v141.2h0
		c0,36.1,28.8,65.5,64.5,66.7v0.1c15.6,0,28.4,12.6,28.6,28.1c-0.3,13.2-10.6,23.9-23.6,24.9c-3.5-4-3.1-7.9-2.2-14.3
		c0.4-2.7,0.8-5.5,0.8-8.6c0-8.9-7.3-16.2-16.2-16.2c-8.9,0-16.1,7.2-16.2,16.1h0c0,0,0,0.1,0,0.1c0,0,0,0,0,0h0
		c0.1,17.7,14.2,32.1,31.7,32.7v0c0.2,0,0.4,0,0.6,0c0.2,0,0.4,0,0.6,0v0c1.8-0.1,3.6-0.2,5.3-0.6
		C685.2,890.3,664.9,897.9,644.1,903.7z M688.4,855.9c-0.6,3.9-1.3,8.4-0.3,13c-7.1-3.9-11.9-11.5-12-20.2c0-3.5,2.9-6.4,6.5-6.4
		c3.6,0,6.5,2.9,6.5,6.5C689.1,851.1,688.8,853.4,688.4,855.9z M808.2,807.3c-25.7,25.7-54.6,47.3-85.6,64.3
		c6.4-6.2,10.5-14.8,10.8-24.3h0c0-0.2,0-0.4,0-0.5c0-0.2,0-0.4,0-0.5h0c-0.4-13.3-7.5-24.9-18.1-31.5c20.3-8.1,34.7-27.9,34.7-51.1
		h0c0-8.9-7.3-16.2-16.2-16.2s-16.2,7.3-16.2,16.2c0,3.5,1.2,7.3,2.5,11.3c3,9.2,6,18.6-3,28.1c-6.2,3.5-13.4,5.6-21,5.8
		c-31-0.6-56-26-56-57.1V610.7c0-26.2,9.8-50.1,25.9-68.3c11.6,6.5,25,10.3,39.2,10.5v0c0.2,0,0.5,0,0.7,0c0.1,0,0.2,0,0.4,0v0
		c29.9-0.3,56.7-14.2,74.4-35.7c27.7,14.3,46.7,43.2,46.8,76.4c-0.1,36-29.2,65.3-65.2,65.7c-13.2-0.2-25.4-4.8-35.1-12.5
		c-8.2-8.9-5.8-19.8-1.8-32.9c1.4-4.6,2.6-8.6,2.6-12.1c0-8.9-7.3-16.2-16.2-16.2c-8.8,0-16,7.1-16.2,15.9h0c0,0.1,0,0.1,0,0.2
		c0,0,0,0.1,0,0.1h0c0.1,21,9.8,39.8,25.1,52.1c0.2,0.2,0.3,0.3,0.5,0.5l0.1-0.1c11.2,8.9,25.2,14.3,40.4,14.6v0c0.2,0,0.5,0,0.7,0
		c0.2,0,0.5,0,0.7,0v0c40.9-0.8,73.9-34.2,74.1-75.2h0c0-0.1,0-0.2,0-0.2c0,0,0-0.1,0-0.1h0c-0.1-36.4-20.6-68-50.6-84.1
		c5.5-8.3,9.8-17.5,12.6-27.3c10,21.2,31.6,36,56.5,36.2v0c0.1,0,0.1,0,0.2,0c0.1,0,0.1,0,0.2,0v0c29.5-0.2,53.6-23.7,54.9-53
		c5,24.6,7.5,49.8,7.5,75.5C918.7,641.4,879.5,736.1,808.2,807.3z M729.5,772.1c-1.1-3.3-2-6.3-2-8.3c0-3.6,2.9-6.5,6.5-6.5
		c3.6,0,6.5,2.9,6.5,6.5h0c0,9.2-2.7,17.7-7.4,24.8C732.8,782.4,730.9,776.7,729.5,772.1z M705.5,601.8c0.1-3.5,2.9-6.4,6.5-6.4
		c3.6,0,6.5,2.9,6.5,6.5c0,2-1.1,5.5-2.2,9.3c-1.5,5.1-3.4,11.3-3.9,17.8C708,620.8,705.5,611.6,705.5,601.8z"/>
	<path class="st0" d="M926.2,378.1c-21-49.7-51.1-94.4-89.5-132.7c-38.3-38.3-83-68.4-132.7-89.5c-51.5-21.8-106.2-32.8-162.5-32.8
		c-56.4,0-111,11-162.5,32.8c-49.7,21-94.4,51.1-132.7,89.5c-38.3,38.3-68.4,83-89.5,132.7C135,429.6,124,484.3,124,540.6
		c0,56.4,11,111,32.8,162.5c21,49.7,51.1,94.4,89.5,132.7c38.3,38.3,83,68.4,132.7,89.5c51.5,21.8,106.2,32.8,162.5,32.8
		c56.4,0,111-11,162.5-32.8c49.7-21,94.4-51.1,132.7-89.5c38.3-38.3,68.4-83,89.5-132.7C948,651.7,959,597,959,540.6
		C959,484.3,948,429.6,926.2,378.1z M917.2,699.3c-20.5,48.6-49.9,92.2-87.4,129.6c-37.5,37.5-81.1,66.9-129.6,87.4
		c-50.3,21.3-103.7,32-158.7,32c-55.1,0-108.5-10.8-158.7-32c-48.6-20.5-92.2-49.9-129.6-87.4c-37.5-37.5-66.9-81.1-87.4-129.6
		c-21.3-50.3-32-103.7-32-158.7c0-55.1,10.8-108.5,32-158.7c20.5-48.6,49.9-92.2,87.4-129.6s81.1-66.9,129.6-87.4
		c50.3-21.3,103.7-32,158.7-32c55.1,0,108.5,10.8,158.7,32c48.6,20.5,92.2,49.9,129.6,87.4c37.5,37.5,66.9,81.1,87.4,129.6
		c21.3,50.3,32,103.7,32,158.7C949.3,595.7,938.5,649.1,917.2,699.3z"/>
</g>
</svg>
